<svg xmlns="http://www.w3.org/2000/svg" viewBox="0 0 64 64" fill="none">
  <rect width="64" height="64" rx="12" fill="#1a1a1a"/>
  <path d="M32 18C28.686 18 26 20.686 26 24V28H24C22.343 28 21 29.343 21 31V44C21 45.657 22.343 47 24 47H40C41.657 47 43 45.657 43 44V31C43 29.343 41.657 28 40 28H38V24C38 20.686 35.314 18 32 18ZM32 21C33.657 21 35 22.343 35 24V28H29V24C29 22.343 30.343 21 32 21ZM24 31H40V44H24V31ZM32 34C30.895 34 30 34.895 30 36C30 36.738 30.402 37.371 31 37.723V41H33V37.723C33.598 37.371 34 36.738 34 36C34 34.895 33.105 34 32 34Z" fill="#4CAF50"/>
</svg>
